<?xml version="1.0" encoding="UTF-8"?>
<svg id="a" data-name="レイヤー_1" xmlns="http://www.w3.org/2000/svg" xmlns:xlink="http://www.w3.org/1999/xlink" viewBox="0 0 909.39 262.27">
	<defs>
		<linearGradient id="b" data-name="名称未設定グラデーション 85" x1="7.55" y1="136.66" x2="897.75" y2="136.66" gradientUnits="userSpaceOnUse">
			<stop offset="0" stop-color="#5ad18e"/>
			<stop offset="1" stop-color="#59bed4"/>
		</linearGradient>
	</defs>
	<g>
		<path d="M74.54,196.09c-3.38,0-5.94-.92-7.7-2.75-1.76-1.83-2.64-4.43-2.64-7.81V56.83H16.02c-2.79,0-4.99-.77-6.6-2.31-1.62-1.54-2.42-3.7-2.42-6.49s.8-4.91,2.42-6.38c1.61-1.46,3.81-2.2,6.6-2.2h116.82c2.93,0,5.17.74,6.71,2.2,1.54,1.47,2.31,3.6,2.31,6.38s-.77,4.95-2.31,6.49c-1.54,1.54-3.78,2.31-6.71,2.31h-48.18v128.7c0,3.38-.85,5.98-2.53,7.81-1.69,1.83-4.22,2.75-7.59,2.75Z" style="stroke: #fff; stroke-linejoin: round; stroke-width: 14px;"/>
		<path d="M181.9,235.69c-2.35,0-4.29-.63-5.83-1.87-1.54-1.25-2.42-2.94-2.64-5.06-.22-2.13.18-4.37,1.21-6.71l14.96-33.88v8.36l-41.58-96.8c-1.03-2.49-1.4-4.76-1.1-6.82.29-2.05,1.28-3.74,2.97-5.06,1.68-1.32,3.99-1.98,6.93-1.98,2.49,0,4.47.59,5.94,1.76,1.46,1.18,2.86,3.23,4.18,6.16l34.54,85.14h-6.16l35.2-85.14c1.17-2.93,2.56-4.98,4.18-6.16,1.61-1.17,3.81-1.76,6.6-1.76,2.49,0,4.43.66,5.83,1.98,1.39,1.32,2.23,3.01,2.53,5.06.29,2.06-.15,4.26-1.32,6.6l-55.44,128.26c-1.47,3.08-2.97,5.17-4.51,6.27-1.54,1.1-3.71,1.65-6.49,1.65Z" style="stroke: #fff; stroke-linejoin: round; stroke-width: 14px;"/>
		<path d="M280.9,235.69c-3.08,0-5.5-.88-7.26-2.64-1.76-1.76-2.64-4.26-2.64-7.48V95.99c0-3.37.88-5.9,2.64-7.59,1.76-1.68,4.18-2.53,7.26-2.53s5.68.85,7.37,2.53c1.68,1.69,2.53,4.22,2.53,7.59v20.02l-2.42-3.96c2.34-8.06,6.96-14.52,13.86-19.36,6.89-4.84,15.18-7.26,24.86-7.26s17.82,2.24,24.86,6.71c7.04,4.48,12.54,10.86,16.5,19.14,3.96,8.29,5.94,18.15,5.94,29.59s-1.95,21.16-5.83,29.59c-3.89,8.44-9.39,14.89-16.5,19.36-7.12,4.48-15.44,6.71-24.97,6.71s-17.75-2.42-24.64-7.26c-6.9-4.84-11.52-11.22-13.86-19.14h2.42v55.44c0,3.22-.88,5.72-2.64,7.48-1.76,1.76-4.26,2.64-7.48,2.64ZM322.48,180.69c6.3,0,11.84-1.54,16.61-4.62,4.76-3.08,8.47-7.55,11.11-13.42,2.64-5.86,3.96-13.12,3.96-21.78,0-12.9-2.86-22.73-8.58-29.48-5.72-6.74-13.42-10.12-23.1-10.12-6.46,0-12.07,1.51-16.83,4.51-4.77,3.01-8.44,7.45-11,13.31-2.57,5.87-3.85,13.13-3.85,21.78,0,12.91,2.86,22.77,8.58,29.59,5.72,6.82,13.42,10.23,23.1,10.23Z" style="stroke: #fff; stroke-linejoin: round; stroke-width: 14px;"/>
		<path d="M449.63,196.53c-11.59,0-21.53-2.23-29.81-6.71-8.29-4.47-14.71-10.85-19.25-19.14-4.55-8.28-6.82-18.07-6.82-29.37s2.23-20.9,6.71-29.26c4.47-8.36,10.63-14.88,18.48-19.58,7.84-4.69,16.83-7.04,26.95-7.04,7.18,0,13.67,1.21,19.47,3.63,5.79,2.42,10.74,5.91,14.85,10.45,4.1,4.55,7.22,10.09,9.35,16.61,2.12,6.53,3.19,13.9,3.19,22.11,0,2.35-.7,4.15-2.09,5.39-1.39,1.25-3.41,1.87-6.05,1.87h-75.24v-12.76h70.18l-3.74,3.08c0-7.62-1.14-14.11-3.41-19.47-2.28-5.35-5.58-9.42-9.9-12.21-4.33-2.78-9.72-4.18-16.17-4.18-7.04,0-13.06,1.65-18.04,4.95-4.99,3.3-8.8,7.92-11.44,13.86-2.64,5.94-3.96,12.8-3.96,20.57v1.32c0,13.2,3.15,23.18,9.46,29.92,6.3,6.75,15.4,10.12,27.28,10.12,4.69,0,9.49-.58,14.41-1.76,4.91-1.17,9.64-3.3,14.19-6.38,2.2-1.32,4.21-1.94,6.05-1.87,1.83.08,3.33.66,4.51,1.76,1.17,1.1,1.9,2.42,2.2,3.96.29,1.54.07,3.19-.66,4.95-.73,1.76-2.13,3.3-4.18,4.62-4.84,3.38-10.6,5.98-17.27,7.81-6.68,1.83-13.09,2.75-19.25,2.75Z" style="stroke: #fff; stroke-linejoin: round; stroke-width: 14px;"/>
		<path d="M518.05,196.09c-2.64,0-4.73-.59-6.27-1.76-1.54-1.17-2.46-2.78-2.75-4.84-.3-2.05.14-4.32,1.32-6.82l60.06-135.96c1.32-3.08,3-5.31,5.06-6.71,2.05-1.39,4.32-2.09,6.82-2.09s4.73.7,6.71,2.09c1.98,1.4,3.7,3.63,5.17,6.71l60.06,135.96c1.17,2.5,1.65,4.81,1.43,6.93-.22,2.13-1.07,3.74-2.53,4.84-1.47,1.1-3.52,1.65-6.16,1.65-2.94,0-5.28-.77-7.04-2.31s-3.3-3.77-4.62-6.71l-15.62-36.52,9.46,5.28h-94.16l9.46-5.28-15.62,36.52c-1.32,3.23-2.79,5.54-4.4,6.93-1.62,1.39-3.74,2.09-6.38,2.09ZM581.85,62.55l-34.32,81.18-5.28-4.62h79.64l-5.06,4.62-34.54-81.18h-.44Z" style="stroke: #fff; stroke-linejoin: round; stroke-width: 14px;"/>
		<path d="M688.77,196.09c-3.08,0-5.5-.88-7.26-2.64-1.76-1.76-2.64-4.32-2.64-7.7v-89.76c0-3.37.88-5.9,2.64-7.59,1.76-1.68,4.18-2.53,7.26-2.53s5.46.85,7.15,2.53c1.68,1.69,2.53,4.22,2.53,7.59v18.04l-2.42-3.3c3.08-8.36,8.1-14.66,15.07-18.92,6.96-4.25,14.92-6.38,23.87-6.38s15.76,1.54,21.34,4.62c5.57,3.08,9.75,7.78,12.54,14.08,2.78,6.31,4.18,14.3,4.18,23.98v57.64c0,3.38-.85,5.94-2.53,7.7-1.69,1.76-4.15,2.64-7.37,2.64s-5.72-.88-7.48-2.64c-1.76-1.76-2.64-4.32-2.64-7.7v-56.54c0-9.53-1.84-16.5-5.5-20.9-3.67-4.4-9.54-6.6-17.6-6.6-9.39,0-16.91,2.9-22.55,8.69-5.65,5.8-8.47,13.61-8.47,23.43v51.92c0,6.9-3.38,10.34-10.12,10.34Z" style="stroke: #fff; stroke-linejoin: round; stroke-width: 14px;"/>
		<path d="M829.35,235.69c-2.35,0-4.29-.63-5.83-1.87-1.54-1.25-2.42-2.94-2.64-5.06-.22-2.13.18-4.37,1.21-6.71l14.96-33.88v8.36l-41.58-96.8c-1.03-2.49-1.4-4.76-1.1-6.82.29-2.05,1.28-3.74,2.97-5.06,1.68-1.32,3.99-1.98,6.93-1.98,2.49,0,4.47.59,5.94,1.76,1.46,1.18,2.86,3.23,4.18,6.16l34.54,85.14h-6.16l35.2-85.14c1.17-2.93,2.56-4.98,4.18-6.16,1.61-1.17,3.81-1.76,6.6-1.76,2.49,0,4.43.66,5.83,1.98,1.39,1.32,2.23,3.01,2.53,5.06.29,2.06-.15,4.26-1.32,6.6l-55.44,128.26c-1.47,3.08-2.97,5.17-4.51,6.27-1.54,1.1-3.71,1.65-6.49,1.65Z" style="stroke: #fff; stroke-linejoin: round; stroke-width: 14px;"/>
	</g>
	<path d="M75.09,195.95c-3.38,0-5.94-.92-7.7-2.75-1.76-1.83-2.64-4.43-2.64-7.81V56.69H16.57c-2.79,0-4.99-.77-6.6-2.31-1.62-1.54-2.42-3.7-2.42-6.49s.8-4.91,2.42-6.38c1.61-1.46,3.81-2.2,6.6-2.2h116.82c2.93,0,5.17.74,6.71,2.2,1.54,1.47,2.31,3.6,2.31,6.38s-.77,4.95-2.31,6.49c-1.54,1.54-3.78,2.31-6.71,2.31h-48.18v128.7c0,3.38-.85,5.98-2.53,7.81-1.69,1.83-4.22,2.75-7.59,2.75ZM182.45,235.55c-2.35,0-4.29-.63-5.83-1.87-1.54-1.25-2.42-2.94-2.64-5.06-.22-2.13.18-4.37,1.21-6.71l14.96-33.88v8.36l-41.58-96.8c-1.03-2.49-1.4-4.76-1.1-6.82.29-2.05,1.28-3.74,2.97-5.06,1.68-1.32,3.99-1.98,6.93-1.98,2.49,0,4.47.59,5.94,1.76,1.46,1.18,2.86,3.23,4.18,6.16l34.54,85.14h-6.16l35.2-85.14c1.17-2.93,2.56-4.98,4.18-6.16,1.61-1.17,3.81-1.76,6.6-1.76,2.49,0,4.43.66,5.83,1.98,1.39,1.32,2.23,3.01,2.53,5.06.29,2.06-.15,4.26-1.32,6.6l-55.44,128.26c-1.47,3.08-2.97,5.17-4.51,6.27-1.54,1.1-3.71,1.65-6.49,1.65ZM281.45,235.55c-3.08,0-5.5-.88-7.26-2.64-1.76-1.76-2.64-4.26-2.64-7.48V95.85c0-3.37.88-5.9,2.64-7.59,1.76-1.68,4.18-2.53,7.26-2.53s5.68.85,7.37,2.53c1.68,1.69,2.53,4.22,2.53,7.59v20.02l-2.42-3.96c2.34-8.06,6.96-14.52,13.86-19.36,6.89-4.84,15.18-7.26,24.86-7.26s17.82,2.24,24.86,6.71c7.04,4.48,12.54,10.86,16.5,19.14,3.96,8.29,5.94,18.15,5.94,29.59s-1.95,21.16-5.83,29.59c-3.89,8.44-9.39,14.89-16.5,19.36-7.12,4.48-15.44,6.71-24.97,6.71s-17.75-2.42-24.64-7.26c-6.9-4.84-11.52-11.22-13.86-19.14h2.42v55.44c0,3.22-.88,5.72-2.64,7.48-1.76,1.76-4.26,2.64-7.48,2.64ZM323.03,180.55c6.3,0,11.84-1.54,16.61-4.62,4.76-3.08,8.47-7.55,11.11-13.42,2.64-5.86,3.96-13.12,3.96-21.78,0-12.9-2.86-22.73-8.58-29.48-5.72-6.74-13.42-10.12-23.1-10.12-6.46,0-12.07,1.51-16.83,4.51-4.77,3.01-8.44,7.45-11,13.31-2.57,5.87-3.85,13.13-3.85,21.78,0,12.91,2.86,22.77,8.58,29.59,5.72,6.82,13.42,10.23,23.1,10.23ZM450.18,196.39c-11.59,0-21.53-2.23-29.81-6.71-8.29-4.47-14.71-10.85-19.25-19.14-4.55-8.28-6.82-18.07-6.82-29.37s2.23-20.9,6.71-29.26c4.47-8.36,10.63-14.88,18.48-19.58,7.84-4.69,16.83-7.04,26.95-7.04,7.18,0,13.67,1.21,19.47,3.63,5.79,2.42,10.74,5.91,14.85,10.45,4.1,4.55,7.22,10.09,9.35,16.61,2.12,6.53,3.19,13.9,3.19,22.11,0,2.35-.7,4.15-2.09,5.39-1.39,1.25-3.41,1.87-6.05,1.87h-75.24v-12.76h70.18l-3.74,3.08c0-7.62-1.14-14.11-3.41-19.47-2.28-5.35-5.58-9.42-9.9-12.21-4.33-2.78-9.72-4.18-16.17-4.18-7.04,0-13.06,1.65-18.04,4.95-4.99,3.3-8.8,7.92-11.44,13.86-2.64,5.94-3.96,12.8-3.96,20.57v1.32c0,13.2,3.15,23.18,9.46,29.92,6.3,6.75,15.4,10.12,27.28,10.12,4.69,0,9.49-.58,14.41-1.76,4.91-1.17,9.64-3.3,14.19-6.38,2.2-1.32,4.21-1.94,6.05-1.87,1.83.08,3.33.66,4.51,1.76,1.17,1.1,1.9,2.42,2.2,3.96.29,1.54.07,3.19-.66,4.95-.73,1.76-2.13,3.3-4.18,4.62-4.84,3.38-10.6,5.98-17.27,7.81-6.68,1.83-13.09,2.75-19.25,2.75ZM518.6,195.95c-2.64,0-4.73-.59-6.27-1.76-1.54-1.17-2.46-2.78-2.75-4.84-.3-2.05.14-4.32,1.32-6.82l60.06-135.96c1.32-3.08,3-5.31,5.06-6.71,2.05-1.39,4.32-2.09,6.82-2.09s4.73.7,6.71,2.09c1.98,1.4,3.7,3.63,5.17,6.71l60.06,135.96c1.17,2.5,1.65,4.81,1.43,6.93-.22,2.13-1.07,3.74-2.53,4.84-1.47,1.1-3.52,1.65-6.16,1.65-2.94,0-5.28-.77-7.04-2.31s-3.3-3.77-4.62-6.71l-15.62-36.52,9.46,5.28h-94.16l9.46-5.28-15.62,36.52c-1.32,3.23-2.79,5.54-4.4,6.93-1.62,1.39-3.74,2.09-6.38,2.09ZM582.4,62.41l-34.32,81.18-5.28-4.62h79.64l-5.06,4.62-34.54-81.18h-.44ZM689.32,195.95c-3.08,0-5.5-.88-7.26-2.64-1.76-1.76-2.64-4.32-2.64-7.7v-89.76c0-3.37.88-5.9,2.64-7.59,1.76-1.68,4.18-2.53,7.26-2.53s5.46.85,7.15,2.53c1.68,1.69,2.53,4.22,2.53,7.59v18.04l-2.42-3.3c3.08-8.36,8.1-14.66,15.07-18.92,6.96-4.25,14.92-6.38,23.87-6.38s15.76,1.54,21.34,4.62c5.57,3.08,9.75,7.78,12.54,14.08,2.78,6.31,4.18,14.3,4.18,23.98v57.64c0,3.38-.85,5.94-2.53,7.7-1.69,1.76-4.15,2.64-7.37,2.64s-5.72-.88-7.48-2.64c-1.76-1.76-2.64-4.32-2.64-7.7v-56.54c0-9.53-1.84-16.5-5.5-20.9-3.67-4.4-9.54-6.6-17.6-6.6-9.39,0-16.91,2.9-22.55,8.69-5.65,5.8-8.47,13.61-8.47,23.43v51.92c0,6.9-3.38,10.34-10.12,10.34ZM829.9,235.55c-2.35,0-4.29-.63-5.83-1.87-1.54-1.25-2.42-2.94-2.64-5.06-.22-2.13.18-4.37,1.21-6.71l14.96-33.88v8.36l-41.58-96.8c-1.03-2.49-1.4-4.76-1.1-6.82.29-2.05,1.28-3.74,2.97-5.06,1.68-1.32,3.99-1.98,6.93-1.98,2.49,0,4.47.59,5.94,1.76,1.46,1.18,2.86,3.23,4.18,6.16l34.54,85.14h-6.16l35.2-85.14c1.17-2.93,2.56-4.98,4.18-6.16,1.61-1.17,3.81-1.76,6.6-1.76,2.49,0,4.43.66,5.83,1.98,1.39,1.32,2.23,3.01,2.53,5.06.29,2.06-.15,4.26-1.32,6.6l-55.44,128.26c-1.47,3.08-2.97,5.17-4.51,6.27-1.54,1.1-3.71,1.65-6.49,1.65Z" style="fill: url(#b);"/>
</svg>
